HIERARCHY
ROOT Hips
{
	OFFSET 0.000000 0.000000 0.000000
	CHANNELS 6 Xposition Yposition Zposition Zrotation Yrotation Xrotation 
	JOINT LHipJoint
	{
		OFFSET 0.000000 0.000000 0.000000
		CHANNELS 3 Zrotation Yrotation Xrotation
		JOINT LeftUpLeg
		{
			OFFSET 1.363060 -1.794630 0.839290
			CHANNELS 3 Zrotation Yrotation Xrotation
			JOINT LeftLeg
			{
				OFFSET 2.448110 -6.726130 0.000000
				CHANNELS 3 Zrotation Yrotation Xrotation
				JOINT LeftFoot
				{
					OFFSET 2.562200 -7.039590 0.000000
					CHANNELS 3 Zrotation Yrotation Xrotation
					JOINT LeftToeBase
					{
						OFFSET 0.157640 -0.433110 2.322550
						CHANNELS 3 Zrotation Yrotation Xrotation
						End Site
						{
							OFFSET 0.000000 0.000000 0.000000
						}
					}
				}
			}
		}
	}
	JOINT RHipJoint
	{
		OFFSET 0.000000 0.000000 0.000000
		CHANNELS 3 Zrotation Yrotation Xrotation
		JOINT RightUpLeg
		{
			OFFSET -1.305520 -1.794630 0.839290
			CHANNELS 3 Zrotation Yrotation Xrotation
			JOINT RightLeg
			{
				OFFSET -2.542530 -6.985550 0.000000
				CHANNELS 3 Zrotation Yrotation Xrotation
				JOINT RightFoot
				{
					OFFSET -2.568260 -7.056230 0.000000
					CHANNELS 3 Zrotation Yrotation Xrotation
					JOINT RightToeBase
					{
						OFFSET -0.164730 -0.452590 2.363150
						CHANNELS 3 Zrotation Yrotation Xrotation
						End Site
						{
							OFFSET 0.000000 0.000000 0.000000
						}
					}
				}
			}
		}
	}
	JOINT LowerBack
	{
		OFFSET 0.000000 0.000000 0.000000
		CHANNELS 3 Zrotation Yrotation Xrotation
		JOINT Spine
		{
			OFFSET 0.028270 2.035590 -0.193380
			CHANNELS 3 Zrotation Yrotation Xrotation
			JOINT Spine1
			{
				OFFSET 0.056720 2.048850 -0.042750
				CHANNELS 3 Zrotation Yrotation Xrotation
				JOINT Neck
				{
					OFFSET 0.000000 0.000000 0.000000
					CHANNELS 3 Zrotation Yrotation Xrotation
					JOINT Neck1
					{
						OFFSET -0.054170 1.746240 0.172020
						CHANNELS 3 Zrotation Yrotation Xrotation
						JOINT Head
						{
							OFFSET 0.104070 1.761360 -0.123970
							CHANNELS 3 Zrotation Yrotation Xrotation
							End Site
							{
								OFFSET 0.000000 0.000000 0.000000
							}
						}
					}
				}
				JOINT LeftShoulder
				{
					OFFSET 0.000000 0.000000 0.000000
					CHANNELS 3 Zrotation Yrotation Xrotation
					JOINT LeftArm
					{
						OFFSET 3.362410 1.200890 -0.311210
						CHANNELS 3 Zrotation Yrotation Xrotation
						JOINT LeftForeArm
						{
							OFFSET 4.983000 -0.000000 -0.000000
							CHANNELS 3 Zrotation Yrotation Xrotation
							JOINT LeftHand
							{
								OFFSET 3.483560 -0.000000 -0.000000
								CHANNELS 3 Zrotation Yrotation Xrotation
								JOINT LeftFingerBase
								{
									OFFSET 0.000000 0.000000 0.000000
									CHANNELS 3 Zrotation Yrotation Xrotation
									JOINT LeftHandIndex1
									{
										OFFSET 0.715260 -0.000000 -0.000000
										CHANNELS 3 Zrotation Yrotation Xrotation
										End Site
										{
											OFFSET 0.000000 0.000000 0.000000
										}
									}
								}
								JOINT LThumb
								{
									OFFSET 0.000000 0.000000 0.000000
									CHANNELS 3 Zrotation Yrotation Xrotation
									End Site
									{
										OFFSET 0.000000 0.000000 0.000000
									}
								}
							}
						}
					}
				}
				JOINT RightShoulder
				{
					OFFSET 0.000000 0.000000 0.000000
					CHANNELS 3 Zrotation Yrotation Xrotation
					JOINT RightArm
					{
						OFFSET -3.136600 1.374050 -0.404650
						CHANNELS 3 Zrotation Yrotation Xrotation
						JOINT RightForeArm
						{
							OFFSET -5.241900 -0.000000 -0.000000
							CHANNELS 3 Zrotation Yrotation Xrotation
							JOINT RightHand
							{
								OFFSET -3.444170 -0.000000 -0.000000
								CHANNELS 3 Zrotation Yrotation Xrotation
								JOINT RightFingerBase
								{
									OFFSET 0.000000 0.000000 0.000000
									CHANNELS 3 Zrotation Yrotation Xrotation
									JOINT RightHandIndex1
									{
										OFFSET -0.622530 -0.000000 -0.000000
										CHANNELS 3 Zrotation Yrotation Xrotation
										End Site
										{
											OFFSET 0.000000 0.000000 0.000000
										}
									}
								}
								JOINT RThumb
								{
									OFFSET 0.000000 0.000000 0.000000
									CHANNELS 3 Zrotation Yrotation Xrotation
									End Site
									{
										OFFSET 0.000000 0.000000 0.000000
									}
								}
							}
						}
					}
				}
			}
		}
	}
}
MOTION
Frames: 4
Frame Time: 0.008333
-8.358801 17.313092 0.003973 -157.541966 78.199174 -134.741737 6.040008 -1.819900 -3.475457 -3.579831 -11.369042 -39.190725 0.049448 12.150577 28.378921 0.506454 -1.431856 -1.193289 2.540900 -9.911900 -28.691800 -9.483894 -2.338429 -1.438770 19.044059 10.530143 -14.653302 2.541896 -4.975240 12.795862 1.862948 -19.340291 -11.134031 -1.312100 7.255600 -20.475000 -2.743495 4.500709 29.505343 -1.706879 5.595317 -0.464674 -10.329835 2.796825 -2.760780 -0.013259 10.992146 -17.763877 -5.226262 19.832957 19.138359 -2.242100 7.300000 19.361200 4.078428 -3.930156 -0.238277 -43.807251 -49.062651 18.616796 19.858840 -25.710767 -6.895710 -1.600982 -2.156959 -12.325976 69.671348 50.342505 66.316600 -7.125000 0.000000 0.000000 149.613300 -74.010000 -158.679400 -3.803246 1.679958 -1.067183 87.545682 37.436920 79.093938 -131.027778 52.049979 -94.106574 1.141865 -1.079611 -19.910780 -32.495490 26.186304 -16.884000 7.125000 0.000000 0.000000 -1.686000 2.030300 -1.745400 
-8.361881 17.309416 0.005066 -157.621384 78.355714 -134.846651 6.024333 -1.816595 -3.478564 -3.685167 -11.276973 -39.187005 0.058868 12.169301 28.445156 0.508329 -1.455893 -1.237528 2.577900 -9.978200 -28.906300 -9.487305 -2.326924 -1.447887 18.920000 10.551184 -14.811981 2.510996 -5.084143 13.062676 1.839315 -19.167106 -11.188684 -1.325900 7.292200 -20.584000 -2.929464 4.411213 29.578631 -1.657213 5.442783 -0.444953 -10.037036 2.708940 -2.760577 -0.269623 11.149274 -17.904688 -5.400594 20.223435 19.026621 -2.199300 7.390300 19.363800 4.084041 -3.940274 -0.214230 -43.500573 -48.814340 17.717222 19.713677 -25.591705 -6.844157 -1.606006 -2.171555 -12.237759 69.609092 50.482878 66.292100 -7.125000 0.000000 0.000000 150.021100 -74.013600 -158.975900 -3.788962 1.680967 -1.045308 87.153261 37.378665 78.978516 -131.733439 51.739626 -94.694972 1.162715 -1.075520 -20.294122 -32.961784 26.695174 -17.451000 7.125000 0.000000 0.000000 -1.859000 2.732400 -1.946500 
-8.366648 17.304351 0.005861 -157.491250 78.490303 -134.728069 6.025343 -1.823723 -3.485960 -3.711950 -11.269120 -39.167591 0.067767 12.187212 28.507183 0.498382 -1.372089 -1.329639 2.639100 -10.086500 -29.257200 -9.473226 -2.322720 -1.440216 18.824655 10.533344 -15.037742 2.479519 -5.196191 13.318664 1.795927 -18.877938 -11.277390 -1.310900 7.252600 -20.465800 -2.865671 4.480460 29.708470 -1.696912 5.535362 -0.442119 -10.228442 2.762100 -2.791455 -0.092895 11.146086 -17.943072 -5.562544 20.155079 18.929461 -2.331800 7.377600 19.362400 4.091096 -3.955301 -0.241872 -43.158854 -48.942674 17.505246 19.548178 -25.405090 -6.770043 -1.615499 -2.179383 -12.225650 69.181702 50.528555 65.799700 -7.125000 0.000000 0.000000 149.919000 -74.293100 -158.727400 -3.795993 1.681124 -1.004379 86.299698 36.630963 77.568290 -132.940943 51.179542 -95.703141 1.179928 -1.085417 -20.809952 -33.159182 27.688658 -18.113400 7.125000 0.000000 0.000000 -1.762800 3.897000 -1.879400 
-8.373304 17.300775 0.006059 -157.328266 78.636033 -134.549169 6.025153 -1.836824 -3.492831 -3.626928 -11.465477 -39.116981 0.068759 12.217640 28.561315 0.465703 -1.082641 -1.511146 2.624800 -10.061400 -29.175800 -9.460825 -2.312853 -1.437017 18.727319 10.513057 -15.316178 2.447692 -5.323082 13.602144 1.753125 -18.593081 -11.440578 -1.270200 7.143200 -20.140500 -2.823967 4.552507 29.807496 -1.716540 5.637906 -0.422972 -10.319433 2.816128 -2.766389 -0.009059 11.174532 -18.027278 -5.729872 20.208498 18.865397 -2.422500 7.393300 19.399200 4.107095 -3.973768 -0.280945 -42.715308 -49.129082 17.040586 19.282168 -25.108419 -6.657791 -1.636893 -2.187312 -11.907296 68.667382 50.693161 65.244100 -7.125000 0.000000 0.000000 150.147000 -74.598300 -158.707800 -3.799548 1.682895 -0.937733 84.878885 35.411906 75.786094 -134.515514 50.411385 -97.007153 1.208110 -1.089511 -21.373389 -33.730751 28.874358 -19.127600 7.125000 0.000000 0.000000 -1.832200 5.382300 -1.997000 
